# xmcd
# 
# Track frame offsets:
#     150
#     27699
#     54770
#     72994
#     90657
#     107546
#     131051
#     151605
#     162304
#     189373
#     214008
#     240211
#     264214
#     283830
#     305526
# 
# Disc length: 4446
# 
# Revision: 1
# Processed by: cddbd v1.5.2PL0 Copyright (c) Steve Scherf et al.
# Submitted via: fre:ac v1.0.17
# 
DISCID=c2115c0f
DTITLE=Tonke Dragt - Der Wilde Wald - CD 5
DYEAR=2005
DGENRE=Hörbuch
TTITLE0=01 Tiuri Und Lavina
TTITLE1=02 Tiuri Und Lavina
TTITLE2=03 Tiuri Und Lavina
TTITLE3=04 Ritter Ristridin - Der Gefangene
TTITLE4=05 Ritter Ristridin - Der Gefangene
TTITLE5=06 Ritter Ristridin - Der Gefangene
TTITLE6=07 Ritter Ristridin - Der Gefangene
TTITLE7=08 Ritter Ristridin - Der Gefangene
TTITLE8=09 Ristridins Heimkehr
TTITLE9=10 Ristridins Heimkehr
TTITLE10=11 Ristridins Heimkehr
TTITLE11=12 Ristridins Heimkehr
TTITLE12=13 Der Letzte Kampf
TTITLE13=14 Der Letzte Kampf
TTITLE14=15 Der Weg Zum Vorgota-Gong
EXTD=Gelesen Von Konstantin Graudus
EXTT0=
EXTT1=
EXTT2=
EXTT3=
EXTT4=
EXTT5=
EXTT6=
EXTT7=
EXTT8=
EXTT9=
EXTT10=
EXTT11=
EXTT12=
EXTT13=
EXTT14=
PLAYORDER=
